<?xml version="1.0" encoding="utf-8"?>
<!-- Generator: Adobe Illustrator 25.0.0, SVG Export Plug-In . SVG Version: 6.00 Build 0)  -->
<svg version="1.1" id="Layer_1" xmlns="http://www.w3.org/2000/svg" xmlns:xlink="http://www.w3.org/1999/xlink" x="0px" y="0px"
	 viewBox="0 0 100 100" style="enable-background:new 0 0 100 100;" xml:space="preserve">
<path d="M97.6,52.2l-4-4l2.7-2.7L69.5,18.8L54.9,33.6l8.5,8.5c-0.6,1.1-1,2.3-1,3.7c0,1.2,0.4,2.6,1,3.7l-4.4,4.4h-6.8V41.4H48v24.2
	h-6.8l-4.4-4.4c1.2-2.2,1.2-5,0-7.2l8.5-8.5L30.4,30.8L4,57.5l2.7,2.7l-4.1,4l9.4,9.4l4-4l2.7,2.7l8-8.1c1.2,0.6,2.3,1,3.6,1
	s2.4-0.4,3.6-1l5.6,5.6h8.5v11.4H52V57.8h8.5l5.6-5.6c1.2,0.6,2.3,1,3.6,1c1.2,0,2.4-0.4,3.6-1l8,8.1l2.7-2.7l4,4L97.6,52.2z
	 M11.9,67.7l-3.5-3.5l1.2-1.2l3.5,3.5L11.9,67.7z M30.4,36.7l8.6,8.7L18.6,66.2l-8.6-8.7L30.4,36.7z M29.8,60.9l3.5-3.5
	c0,0.1,0,0.2,0,0.2c0,1-0.4,1.7-1,2.3C31.8,60.6,30.8,61,29.8,60.9z M69.5,24.7L90,45.5l-8.6,8.7L60.9,33.6L69.5,24.7z M67.6,47.9
	c-0.6-0.6-1-1.4-1-2.3c0-0.1,0-0.2,0-0.2l3.5,3.5C69.2,48.9,68.3,48.6,67.6,47.9z M90.4,51.1l1.2,1.2l-3.5,3.5L87,54.5L90.4,51.1z"
	/>
</svg>
