<svg id="Layer_1" data-name="Layer 1" xmlns="http://www.w3.org/2000/svg" viewBox="0 0 1902 1029.24"><defs><style>.cls-1{font-size:443.06px;font-family:IBMPlexSans-Bold, IBM Plex Sans;font-weight:700;}.cls-1,.cls-2{fill:#f3d542;}.cls-10,.cls-3,.cls-4,.cls-5,.cls-6,.cls-8,.cls-9{fill:none;}.cls-3,.cls-9{stroke:#3fa9f5;}.cls-10,.cls-3,.cls-4,.cls-5,.cls-6,.cls-9{stroke-miterlimit:10;}.cls-3{stroke-width:7px;}.cls-4{stroke:#fbb03b;}.cls-10,.cls-4,.cls-5,.cls-9{stroke-width:6px;}.cls-5{stroke:#ed1c24;}.cls-6{stroke:#6b73a0;stroke-width:34px;}.cls-7{fill:#6b73a0;}.cls-10{stroke:red;}.cls-11{fill:#fff;}.cls-12{fill:#ccc;}.cls-13{fill:#f6d653;}.cls-14{fill:#1a1a1a;}.cls-15{fill:#5e6d5e;}.cls-16{fill:#7c8e7c;}.cls-17{fill:#999;}.cls-18{fill:#c2c2c2;}.cls-19{fill:#f9f181;}.cls-20{fill:#fffeb1;}.cls-21{fill:#e8ad30;}.cls-22{fill:#b9dae9;}.cls-23{fill:#ffb31c;}.cls-24{fill:#ff8c03;}.cls-25{fill:#939393;}</style></defs><text class="cls-1" transform="translate(508 386.42) scale(1.06 1)">404</text><polyline class="cls-2" points="348.65 162.37 351.07 161.95 421.58 149.77 259.34 0 346.6 124.1 264.64 137.36 439.37 261.4"/><path class="cls-3" d="M470.56,433.5c8.25-.42,16.89-1.07,25.86-2,11.52-1.2,22.39-2.74,32.58-4.5" transform="translate(-15 -39.74)"/><path class="cls-4" d="M468.5,420.5c5.9-1.6,18.53-2.57,26.37-3.5a145,145,0,0,1,18.62-1" transform="translate(-15 -39.74)"/><path class="cls-5" d="M462.81,410c6.54-1.46,36.24-4.93,29-4s17.41-2.27,35.16-4" transform="translate(-15 -39.74)"/><path class="cls-6" d="M468.5,420.5c-29.85,5.63-72,18-109.64,49-31.42,25.85-38,46.75-90,134-66,110.65-83.86,124.75-102.39,133C143.23,746.86,101,756,32,727.5" transform="translate(-15 -39.74)"/><circle class="cls-7" cx="17.5" cy="687.76" r="17.5"/><path class="cls-8" d="M1411.22,424l56.68,41" transform="translate(-15 -39.74)"/><path class="cls-8" d="M1375.49,422" transform="translate(-15 -39.74)"/><path class="cls-9" d="M1410,436a144.2,144.2,0,0,0-29-10.5,153.93,153.93,0,0,0-24.64-4" transform="translate(-15 -39.74)"/><path class="cls-4" d="M1354,408.35c9,1.35,23.58,3.94,34.43,8.18,1.27.49,5.16,2.05,9.83,4.05,5.74,2.46,10.38,4.6,13.5,6.07" transform="translate(-15 -39.74)"/><path class="cls-10" d="M1374.87,401.5a165.48,165.48,0,0,1,22.18,6,156.84,156.84,0,0,1,21,9" transform="translate(-15 -39.74)"/><path class="cls-6" d="M1412.45,424c32.68,14.9,75.46,40.34,91.18,81,23.86,61.69-37,100.3-14.78,154,22.78,55,117.57,89.19,197.14,86,95.54-3.83,181.77-62.09,213.16-146" transform="translate(-15 -39.74)"/><path class="cls-11" d="M923.79,873.58h-.38l-.29,0-.28,0-.29.06a.56.56,0,0,1-.25-.06h0a.74.74,0,0,1-.08.15l-.38.13-.27.11-.26.12-.26.13-.24.14a2.5,2.5,0,0,0-.24.16l-.24.17-.22.18-.22.19-.2.21-.2.21-.18.22c-.06.08-.12.15-.17.23s-.11.16-.16.24a1.28,1.28,0,0,0-.15.25l-.14.25-.12.26c0,.09-.08.18-.11.27s-.07.18-.1.27a2.29,2.29,0,0,0-.08.28,2.68,2.68,0,0,0-.07.27l-.06.29c0,.09,0,.19,0,.28s0,.19,0,.29a.35.35,0,0,1-.09.28v.11a.37.37,0,0,1,.09.29.28.28,0,0,0,0,.09l0,.29c0,.09,0,.19,0,.28l.06.29a.7.7,0,0,0,.1.26v0s0,.06,0,.09.08.25.12.38.07.18.11.26l.12.27c0,.08.08.17.13.25l.14.25.16.24a2,2,0,0,0,.17.23,1.3,1.3,0,0,0,.18.23l.19.21.2.21.21.19.23.19.23.17.23.16.25.15.25.14.27.12.26.11.27.1.28.08.28.07.28.06.29,0,.28,0h.78l.29,0,.28,0A2.3,2.3,0,0,0,925,885l.26-.05h0l.08,0,.38-.13.27-.11.26-.11.26-.14.25-.14.24-.16.23-.17.23-.18.21-.19.21-.2.19-.21c.07-.07.13-.15.19-.22l.17-.23.16-.24.15-.25c.05-.08.09-.17.13-.25l.13-.26c0-.09.07-.18.11-.26a2.31,2.31,0,0,1,.1-.28,2.76,2.76,0,0,1,.08-.27l.07-.28a2.93,2.93,0,0,0,.05-.29,2.7,2.7,0,0,0,0-.28,2.89,2.89,0,0,0,0-.29.67.67,0,0,0,0-.28v-.11a.72.72,0,0,0,0-.29V879a2.54,2.54,0,0,0,0-.29,2.89,2.89,0,0,0,0-.29,1.4,1.4,0,0,0-.06-.28c0-.09,0-.17-.2-.26v0c.14,0,.12-.05.11-.08s-.08-.25-.13-.38l-.1-.27-.12-.26-.13-.25-.15-.25-.15-.24c-.06-.08-.11-.16-.17-.23l-.18-.23-.2-.22-.2-.2-.21-.2-.22-.18-.23-.17-.25-.16-.24-.15-.26-.14-.26-.12-.26-.11-.27-.1-.28-.08-.28-.07-.28-.06-.29,0-.28,0h-.4Zm0,0" transform="translate(-15 -39.74)"/><path class="cls-11" d="M923.79,873.66a.4.4,0,0,0-.29-.08h-.09l-.29,0-.28,0-.29.06c-.08,0-.25.26-.25.26h0s-.06-.18-.08-.17l-.38.13-.27.11-.26.12-.26.13-.24.14a2.5,2.5,0,0,0-.24.16l-.24.17-.22.18-.22.19-.2.21-.2.21-.18.22c-.06.08-.12.15-.17.23s-.11.16-.16.24a1.28,1.28,0,0,0-.15.25l-.14.25-.12.26c0,.09-.08.18-.11.27s-.07.18-.1.27a2.29,2.29,0,0,0-.08.28,2.68,2.68,0,0,0-.07.27l-.06.29c0,.09,0,.19,0,.28s0,.19,0,.29a.35.35,0,0,1-.09.28v.11a.37.37,0,0,1,.09.29.28.28,0,0,0,0,.09l0,.29c0,.09,0,.19,0,.29l.06.28a1.78,1.78,0,0,0,.1.26v0s0,.06,0,.09.08.25.12.38.07.18.11.26l.12.27c0,.08.08.17.13.25l.14.25.16.24a2,2,0,0,0,.17.23,1.3,1.3,0,0,0,.18.23l.19.21.2.21.21.19.23.19.23.17.23.16.25.15.25.14.27.12.26.11.27.1.28.08.28.07.28,0,.29.05.28,0a.29.29,0,0,1,.29.14h.11a.29.29,0,0,1,.29-.14h.09l.29,0,.28,0L925,885l.26,0h0l.08,0,.38-.13.27-.1.26-.12.26-.14.25-.14.24-.16.23-.16.23-.19.21-.18.21-.21c.06-.07.13-.13.19-.21a2,2,0,0,0,.19-.22c.06-.07.11-.15.17-.23l.16-.24.15-.24.13-.26.13-.26c0-.08.07-.17.11-.26s.06-.18.1-.28a2.76,2.76,0,0,1,.08-.27c0-.09,0-.18.07-.28a2.74,2.74,0,0,0,.05-.28,2.89,2.89,0,0,0,0-.29,2.54,2.54,0,0,0,0-.29,1.52,1.52,0,0,0,0-.28v-.11a1.65,1.65,0,0,0,0-.29V879a2.54,2.54,0,0,0,0-.29,2.89,2.89,0,0,0,0-.29,1.4,1.4,0,0,0-.06-.28c0-.09,0-.17-.2-.26v0c.14,0,.12-.06.11-.09s-.08-.25-.13-.38-.07-.18-.1-.26l-.12-.27-.13-.25-.15-.25-.15-.24c-.06-.08-.11-.16-.17-.23l-.18-.22-.2-.22-.2-.21-.21-.19-.22-.19-.23-.17-.25-.16-.24-.15-.26-.14-.26-.12-.26-.11-.27-.1-.28-.08-.28-.08-.28-.05-.29,0-.28,0h-.29s-.07,0-.11.08Zm0-.08" transform="translate(-15 -39.74)"/><path class="cls-11" d="M923.79,873.66a.4.4,0,0,0-.29-.08h-.09l-.29,0-.28,0-.29.06c-.08,0-.25.26-.25.26h0s-.06-.18-.08-.17l-.38.13-.27.11-.26.12-.26.13-.24.14a2.5,2.5,0,0,0-.24.16l-.24.17-.22.18-.22.19-.2.21-.2.21-.18.22c-.06.08-.12.15-.17.23s-.11.16-.16.24a1.28,1.28,0,0,0-.15.25l-.14.25-.12.26c0,.09-.08.18-.11.27s-.07.18-.1.27a2.29,2.29,0,0,0-.08.28,2.68,2.68,0,0,0-.07.27l-.06.29c0,.09,0,.19,0,.28s0,.19,0,.29a.35.35,0,0,1-.09.28v.11a.37.37,0,0,1,.09.29.28.28,0,0,0,0,.09l0,.29c0,.09,0,.19,0,.29l.06.28a1.78,1.78,0,0,0,.1.26v0s0,.06,0,.09.08.25.12.38.07.18.11.26l.12.27c0,.08.08.17.13.25l.14.25.16.24a2,2,0,0,0,.17.23,1.3,1.3,0,0,0,.18.23l.19.21.2.21.21.19.23.19.23.17.23.16.25.15.25.14.27.12.26.11.27.1.28.08.28.07.28,0,.29.05.28,0a.29.29,0,0,1,.29.14h.11a.29.29,0,0,1,.29-.14h.09l.29,0,.28,0L925,885l.26,0h0l.08,0,.38-.13.27-.1.26-.12.26-.14.25-.14.24-.16.23-.16.23-.19.21-.18.21-.21c.06-.07.13-.13.19-.21a2,2,0,0,0,.19-.22c.06-.07.11-.15.17-.23l.16-.24.15-.24.13-.26.13-.26c0-.08.07-.17.11-.26s.06-.18.1-.28a2.76,2.76,0,0,1,.08-.27c0-.09,0-.18.07-.28a2.74,2.74,0,0,0,.05-.28,2.89,2.89,0,0,0,0-.29,2.54,2.54,0,0,0,0-.29,1.52,1.52,0,0,0,0-.28v-.11a1.65,1.65,0,0,0,0-.29V879a2.54,2.54,0,0,0,0-.29,2.89,2.89,0,0,0,0-.29,1.4,1.4,0,0,0-.06-.28c0-.09,0-.17-.2-.26v0c.14,0,.12-.06.11-.09s-.08-.25-.13-.38-.07-.18-.1-.26l-.12-.27-.13-.25-.15-.25-.15-.24c-.06-.08-.11-.16-.17-.23l-.18-.22-.2-.22-.2-.21-.21-.19-.22-.19-.23-.17-.25-.16-.24-.15-.26-.14-.26-.12-.26-.11-.27-.1-.28-.08-.28-.08-.28-.05-.29,0-.28,0h-.29s-.07,0-.11.08Zm0-.08" transform="translate(-15 -39.74)"/><path class="cls-11" d="M923.79,873.66a.4.4,0,0,0-.29-.08h-.09l-.29,0-.28,0-.29.06c-.08,0-.25.26-.25.26h0s-.06-.18-.08-.17l-.38.13-.27.11-.26.12-.26.13-.24.14a2.5,2.5,0,0,0-.24.16l-.24.17-.22.18-.22.19-.2.21-.2.21-.18.22c-.06.08-.12.15-.17.23s-.11.16-.16.24a1.28,1.28,0,0,0-.15.25l-.14.25-.12.26c0,.09-.08.18-.11.27s-.07.18-.1.27a2.29,2.29,0,0,0-.08.28,2.68,2.68,0,0,0-.07.27l-.06.29c0,.09,0,.19,0,.28s0,.19,0,.29a.35.35,0,0,1-.09.28v.11a.37.37,0,0,1,.09.29.28.28,0,0,0,0,.09l0,.29c0,.09,0,.19,0,.29l.06.28a1.78,1.78,0,0,0,.1.26v0s0,.06,0,.09.08.25.12.38.07.18.11.26l.12.27c0,.08.08.17.13.25l.14.25.16.24a2,2,0,0,0,.17.23,1.3,1.3,0,0,0,.18.23l.19.21.2.21.21.19.23.19.23.17.23.16.25.15.25.14.27.12.26.11.27.1.28.08.28.07.28,0,.29.05.28,0a.29.29,0,0,1,.29.14h.11a.29.29,0,0,1,.29-.14h.09l.29,0,.28,0L925,885l.26,0h0l.08,0,.38-.13.27-.1.26-.12.26-.14.25-.14.24-.16.23-.16.23-.19.21-.18.21-.21c.06-.07.13-.13.19-.21a2,2,0,0,0,.19-.22c.06-.07.11-.15.17-.23l.16-.24.15-.24.13-.26.13-.26c0-.08.07-.17.11-.26s.06-.18.1-.28a2.76,2.76,0,0,1,.08-.27c0-.09,0-.18.07-.28a2.74,2.74,0,0,0,.05-.28,2.89,2.89,0,0,0,0-.29,2.54,2.54,0,0,0,0-.29,1.52,1.52,0,0,0,0-.28v-.11a1.65,1.65,0,0,0,0-.29V879a2.54,2.54,0,0,0,0-.29,2.89,2.89,0,0,0,0-.29,1.4,1.4,0,0,0-.06-.28c0-.09,0-.17-.2-.26v0c.14,0,.12-.06.11-.09s-.08-.25-.13-.38-.07-.18-.1-.26l-.12-.27-.13-.25-.15-.25-.15-.24c-.06-.08-.11-.16-.17-.23l-.18-.22-.2-.22-.2-.21-.21-.19-.22-.19-.23-.17-.25-.16-.24-.15-.26-.14-.26-.12-.26-.11-.27-.1-.28-.08-.28-.08-.28-.05-.29,0-.28,0h-.29s-.07,0-.11.08Zm0-.08" transform="translate(-15 -39.74)"/><path class="cls-11" d="M923.79,873.66a.4.4,0,0,0-.29-.08h-.09l-.29,0-.28,0-.29.06c-.08,0-.25.26-.25.26h0s-.06-.18-.08-.17l-.38.13-.27.11-.26.12-.26.13-.24.14a2.5,2.5,0,0,0-.24.16l-.24.17-.22.18-.22.19-.2.21-.2.21-.18.22c-.06.08-.12.15-.17.23s-.11.16-.16.24a1.28,1.28,0,0,0-.15.25l-.14.25-.12.26c0,.09-.08.18-.11.27s-.07.18-.1.27a2.29,2.29,0,0,0-.08.28,2.68,2.68,0,0,0-.07.27l-.06.29c0,.09,0,.19,0,.28s0,.19,0,.29a.35.35,0,0,1-.09.28v.11a.37.37,0,0,1,.09.29.28.28,0,0,0,0,.09l0,.29c0,.09,0,.19,0,.29l.06.28a1.78,1.78,0,0,0,.1.26v0s0,.06,0,.09.08.25.12.38.07.18.11.26l.12.27c0,.08.08.17.13.25l.14.25.16.24a2,2,0,0,0,.17.23,1.3,1.3,0,0,0,.18.23l.19.21.2.21.21.19.23.19.23.17.23.16.25.15.25.14.27.12.26.11.27.1.28.08.28.07.28,0,.29.05.28,0a.29.29,0,0,1,.29.14h.11a.29.29,0,0,1,.29-.14h.09l.29,0,.28,0L925,885l.26,0h0l.08,0,.38-.13.27-.1.26-.12.26-.14.25-.14.24-.16.23-.16.23-.19.21-.18.21-.21c.06-.07.13-.13.19-.21a2,2,0,0,0,.19-.22c.06-.07.11-.15.17-.23l.16-.24.15-.24.13-.26.13-.26c0-.08.07-.17.11-.26s.06-.18.1-.28a2.76,2.76,0,0,1,.08-.27c0-.09,0-.18.07-.28a2.74,2.74,0,0,0,.05-.28,2.89,2.89,0,0,0,0-.29,2.54,2.54,0,0,0,0-.29,1.52,1.52,0,0,0,0-.28v-.11a1.65,1.65,0,0,0,0-.29V879a2.54,2.54,0,0,0,0-.29,2.89,2.89,0,0,0,0-.29,1.4,1.4,0,0,0-.06-.28c0-.09,0-.17-.2-.26v0c.14,0,.12-.06.11-.09s-.08-.25-.13-.38-.07-.18-.1-.26l-.12-.27-.13-.25-.15-.25-.15-.24c-.06-.08-.11-.16-.17-.23l-.18-.22-.2-.22-.2-.21-.21-.19-.22-.19-.23-.17-.25-.16-.24-.15-.26-.14-.26-.12-.26-.11-.27-.1-.28-.08-.28-.08-.28-.05-.29,0-.28,0h-.29s-.07,0-.11.08Zm0-.08" transform="translate(-15 -39.74)"/><path class="cls-11" d="M923.79,873.66a.4.4,0,0,0-.29-.08h-.09l-.29,0-.28,0-.29.06c-.08,0-.25.26-.25.26h0s-.06-.18-.08-.17l-.38.13-.27.11-.26.12-.26.13-.24.14a2.5,2.5,0,0,0-.24.16l-.24.17-.22.18-.22.19-.2.21-.2.21-.18.22c-.06.08-.12.15-.17.23s-.11.16-.16.24a1.28,1.28,0,0,0-.15.25l-.14.25-.12.26c0,.09-.08.18-.11.27s-.07.18-.1.27a2.29,2.29,0,0,0-.08.28,2.68,2.68,0,0,0-.07.27l-.06.29c0,.09,0,.19,0,.28s0,.19,0,.29a.35.35,0,0,1-.09.28v.11a.37.37,0,0,1,.09.29.28.28,0,0,0,0,.09l0,.29c0,.09,0,.19,0,.29l.06.28a1.78,1.78,0,0,0,.1.26v0s0,.06,0,.09.08.25.12.38.07.18.11.26l.12.27c0,.08.08.17.13.25l.14.25.16.24a2,2,0,0,0,.17.23,1.3,1.3,0,0,0,.18.23l.19.21.2.21.21.19.23.19.23.17.23.16.25.15.25.14.27.12.26.11.27.1.28.08.28.07.28,0,.29.05.28,0a.29.29,0,0,1,.29.14h.11a.29.29,0,0,1,.29-.14h.09l.29,0,.28,0L925,885l.26,0h0l.08,0,.38-.13.27-.1.26-.12.26-.14.25-.14.24-.16.23-.16.23-.19.21-.18.21-.21c.06-.07.13-.13.19-.21a2,2,0,0,0,.19-.22c.06-.07.11-.15.17-.23l.16-.24.15-.24.13-.26.13-.26c0-.08.07-.17.11-.26s.06-.18.1-.28a2.76,2.76,0,0,1,.08-.27c0-.09,0-.18.07-.28a2.74,2.74,0,0,0,.05-.28,2.89,2.89,0,0,0,0-.29,2.54,2.54,0,0,0,0-.29,1.52,1.52,0,0,0,0-.28v-.11a1.65,1.65,0,0,0,0-.29V879a2.54,2.54,0,0,0,0-.29,2.89,2.89,0,0,0,0-.29,1.4,1.4,0,0,0-.06-.28c0-.09,0-.17-.2-.26v0c.14,0,.12-.06.11-.09s-.08-.25-.13-.38-.07-.18-.1-.26l-.12-.27-.13-.25-.15-.25-.15-.24c-.06-.08-.11-.16-.17-.23l-.18-.22-.2-.22-.2-.21-.21-.19-.22-.19-.23-.17-.25-.16-.24-.15-.26-.14-.26-.12-.26-.11-.27-.1-.28-.08-.28-.08-.28-.05-.29,0-.28,0h-.29s-.07,0-.11.08Zm0-.08" transform="translate(-15 -39.74)"/><path class="cls-11" d="M923.79,873.66a.4.4,0,0,0-.29-.08h-.09l-.29,0-.28,0-.29.06c-.08,0-.25.26-.25.26h0s-.06-.18-.08-.17l-.38.13-.27.11-.26.12-.26.13-.24.14a2.5,2.5,0,0,0-.24.16l-.24.17-.22.18-.22.19-.2.21-.2.21-.18.22c-.06.08-.12.15-.17.23s-.11.16-.16.24a1.28,1.28,0,0,0-.15.25l-.14.25-.12.26c0,.09-.08.18-.11.27s-.07.18-.1.27a2.29,2.29,0,0,0-.08.28,2.68,2.68,0,0,0-.07.27l-.06.29c0,.09,0,.19,0,.28s0,.19,0,.29a.35.35,0,0,1-.09.28v.11a.37.37,0,0,1,.09.29.28.28,0,0,0,0,.09l0,.29c0,.09,0,.19,0,.29l.06.28a1.78,1.78,0,0,0,.1.26v0s0,.06,0,.09.08.25.12.38.07.18.11.26l.12.27c0,.08.08.17.13.25l.14.25.16.24a2,2,0,0,0,.17.23,1.3,1.3,0,0,0,.18.23l.19.21.2.21.21.19.23.19.23.17.23.16.25.15.25.14.27.12.26.11.27.1.28.08.28.07.28,0,.29.05.28,0a.29.29,0,0,1,.29.14h.11a.29.29,0,0,1,.29-.14h.09l.29,0,.28,0L925,885l.26,0h0l.08,0,.38-.13.27-.1.26-.12.26-.14.25-.14.24-.16.23-.16.23-.19.21-.18.21-.21c.06-.07.13-.13.19-.21a2,2,0,0,0,.19-.22c.06-.07.11-.15.17-.23l.16-.24.15-.24.13-.26.13-.26c0-.08.07-.17.11-.26s.06-.18.1-.28a2.76,2.76,0,0,1,.08-.27c0-.09,0-.18.07-.28a2.74,2.74,0,0,0,.05-.28,2.89,2.89,0,0,0,0-.29,2.54,2.54,0,0,0,0-.29,1.52,1.52,0,0,0,0-.28v-.11a1.65,1.65,0,0,0,0-.29V879a2.54,2.54,0,0,0,0-.29,2.89,2.89,0,0,0,0-.29,1.4,1.4,0,0,0-.06-.28c0-.09,0-.17-.2-.26v0c.14,0,.12-.06.11-.09s-.08-.25-.13-.38-.07-.18-.1-.26l-.12-.27-.13-.25-.15-.25-.15-.24c-.06-.08-.11-.16-.17-.23l-.18-.22-.2-.22-.2-.21-.21-.19-.22-.19-.23-.17-.25-.16-.24-.15-.26-.14-.26-.12-.26-.11-.27-.1-.28-.08-.28-.08-.28-.05-.29,0-.28,0h-.29s-.07,0-.11.08Zm0-.08" transform="translate(-15 -39.74)"/><path class="cls-11" d="M923.79,873.66a.4.4,0,0,0-.29-.08h-.09l-.29,0-.28,0-.29.06c-.08,0-.25.26-.25.26h0s-.06-.18-.08-.17l-.38.13-.27.11-.26.12-.26.13-.24.14a2.5,2.5,0,0,0-.24.16l-.24.17-.22.18-.22.19-.2.21-.2.21-.18.22c-.06.08-.12.15-.17.23s-.11.16-.16.24a1.28,1.28,0,0,0-.15.25l-.14.25-.12.26c0,.09-.08.18-.11.27s-.07.18-.1.27a2.29,2.29,0,0,0-.08.28,2.68,2.68,0,0,0-.07.27l-.06.29c0,.09,0,.19,0,.28s0,.19,0,.29a.35.35,0,0,1-.09.28v.11a.37.37,0,0,1,.09.29.28.28,0,0,0,0,.09l0,.29c0,.09,0,.19,0,.29l.06.28a1.78,1.78,0,0,0,.1.26v0s0,.06,0,.09.08.25.12.38.07.18.11.26l.12.27c0,.08.08.17.13.25l.14.25.16.24a2,2,0,0,0,.17.23,1.3,1.3,0,0,0,.18.23l.19.21.2.21.21.19.23.19.23.17.23.16.25.15.25.14.27.12.26.11.27.1.28.08.28.07.28,0,.29.05.28,0a.29.29,0,0,1,.29.14h.11a.29.29,0,0,1,.29-.14h.09l.29,0,.28,0L925,885l.26,0h0l.08,0,.38-.13.27-.1.26-.12.26-.14.25-.14.24-.16.23-.16.23-.19.21-.18.21-.21c.06-.07.13-.13.19-.21a2,2,0,0,0,.19-.22c.06-.07.11-.15.17-.23l.16-.24.15-.24.13-.26.13-.26c0-.08.07-.17.11-.26s.06-.18.1-.28a2.76,2.76,0,0,1,.08-.27c0-.09,0-.18.07-.28a2.74,2.74,0,0,0,.05-.28,2.89,2.89,0,0,0,0-.29,2.54,2.54,0,0,0,0-.29,1.52,1.52,0,0,0,0-.28v-.11a1.65,1.65,0,0,0,0-.29V879a2.54,2.54,0,0,0,0-.29,2.89,2.89,0,0,0,0-.29,1.4,1.4,0,0,0-.06-.28c0-.09,0-.17-.2-.26v0c.14,0,.12-.06.11-.09s-.08-.25-.13-.38-.07-.18-.1-.26l-.12-.27-.13-.25-.15-.25-.15-.24c-.06-.08-.11-.16-.17-.23l-.18-.22-.2-.22-.2-.21-.21-.19-.22-.19-.23-.17-.25-.16-.24-.15-.26-.14-.26-.12-.26-.11-.27-.1-.28-.08-.28-.08-.28-.05-.29,0-.28,0h-.29s-.07,0-.11.08Zm0-.08" transform="translate(-15 -39.74)"/><path class="cls-11" d="M923.79,873.66a.4.4,0,0,0-.29-.08h-.09l-.29,0-.28,0-.29.06c-.08,0-.25.26-.25.26h0s-.06-.18-.08-.17l-.38.13-.27.11-.26.12-.26.13-.24.14a2.5,2.5,0,0,0-.24.16l-.24.17-.22.18-.22.19-.2.21-.2.21-.18.22c-.06.08-.12.15-.17.23s-.11.16-.16.24a1.28,1.28,0,0,0-.15.25l-.14.25-.12.26c0,.09-.08.18-.11.27s-.07.18-.1.27a2.29,2.29,0,0,0-.08.28,2.68,2.68,0,0,0-.07.27l-.06.29c0,.09,0,.19,0,.28s0,.19,0,.29a.35.35,0,0,1-.09.28v.11a.37.37,0,0,1,.09.29.28.28,0,0,0,0,.09l0,.29c0,.09,0,.19,0,.29l.06.28a1.78,1.78,0,0,0,.1.26v0s0,.06,0,.09.08.25.12.38.07.18.11.26l.12.27c0,.08.08.17.13.25l.14.25.16.24a2,2,0,0,0,.17.23,1.3,1.3,0,0,0,.18.23l.19.21.2.21.21.19.23.19.23.17.23.16.25.15.25.14.27.12.26.11.27.1.28.08.28.07.28,0,.29.05.28,0a.29.29,0,0,1,.29.14h.11a.29.29,0,0,1,.29-.14h.09l.29,0,.28,0L925,885l.26,0h0l.08,0,.38-.13.27-.1.26-.12.26-.14.25-.14.24-.16.23-.16.23-.19.21-.18.21-.21c.06-.07.13-.13.19-.21a2,2,0,0,0,.19-.22c.06-.07.11-.15.17-.23l.16-.24.15-.24.13-.26.13-.26c0-.08.07-.17.11-.26s.06-.18.1-.28a2.76,2.76,0,0,1,.08-.27c0-.09,0-.18.07-.28a2.74,2.74,0,0,0,.05-.28,2.89,2.89,0,0,0,0-.29,2.54,2.54,0,0,0,0-.29,1.52,1.52,0,0,0,0-.28v-.11a1.65,1.65,0,0,0,0-.29V879a2.54,2.54,0,0,0,0-.29,2.89,2.89,0,0,0,0-.29,1.4,1.4,0,0,0-.06-.28c0-.09,0-.17-.2-.26v0c.14,0,.12-.06.11-.09s-.08-.25-.13-.38-.07-.18-.1-.26l-.12-.27-.13-.25-.15-.25-.15-.24c-.06-.08-.11-.16-.17-.23l-.18-.22-.2-.22-.2-.21-.21-.19-.22-.19-.23-.17-.25-.16-.24-.15-.26-.14-.26-.12-.26-.11-.27-.1-.28-.08-.28-.08-.28-.05-.29,0-.28,0h-.29s-.07,0-.11.08Zm0-.08" transform="translate(-15 -39.74)"/><path class="cls-11" d="M923.79,873.66a.4.4,0,0,0-.29-.08h-.09l-.29,0-.28,0-.29.06c-.08,0-.25.26-.25.26h0s-.06-.18-.08-.17l-.38.13-.27.11-.26.12-.26.13-.24.14a2.5,2.5,0,0,0-.24.16l-.24.17-.22.18-.22.19-.2.21-.2.21-.18.22c-.06.08-.12.15-.17.23s-.11.16-.16.24a1.28,1.28,0,0,0-.15.25l-.14.25-.12.26c0,.09-.08.18-.11.27s-.07.18-.1.27a2.29,2.29,0,0,0-.08.28,2.68,2.68,0,0,0-.07.27l-.06.29c0,.09,0,.19,0,.28s0,.19,0,.29a.35.35,0,0,1-.09.28v.11a.37.37,0,0,1,.09.29.28.28,0,0,0,0,.09l0,.29c0,.09,0,.19,0,.29l.06.28a1.78,1.78,0,0,0,.1.26v0s0,.06,0,.09.08.25.12.38.07.18.11.26l.12.27c0,.08.08.17.13.25l.14.25.16.24a2,2,0,0,0,.17.23,1.3,1.3,0,0,0,.18.23l.19.21.2.21.21.19.23.19.23.17.23.16.25.15.25.14.27.12.26.11.27.1.28.08.28.07.28,0,.29.05.28,0a.29.29,0,0,1,.29.14h.11a.29.29,0,0,1,.29-.14h.09l.29,0,.28,0L925,885l.26,0h0l.08,0,.38-.13.27-.1.26-.12.26-.14.25-.14.24-.16.23-.16.23-.19.21-.18.21-.21c.06-.07.13-.13.19-.21a2,2,0,0,0,.19-.22c.06-.07.11-.15.17-.23l.16-.24.15-.24.13-.26.13-.26c0-.08.07-.17.11-.26s.06-.18.1-.28a2.76,2.76,0,0,1,.08-.27c0-.09,0-.18.07-.28a2.74,2.74,0,0,0,.05-.28,2.89,2.89,0,0,0,0-.29,2.54,2.54,0,0,0,0-.29,1.52,1.52,0,0,0,0-.28v-.11a1.65,1.65,0,0,0,0-.29V879a2.54,2.54,0,0,0,0-.29,2.89,2.89,0,0,0,0-.29,1.4,1.4,0,0,0-.06-.28c0-.09,0-.17-.2-.26v0c.14,0,.12-.06.11-.09s-.08-.25-.13-.38-.07-.18-.1-.26l-.12-.27-.13-.25-.15-.25-.15-.24c-.06-.08-.11-.16-.17-.23l-.18-.22-.2-.22-.2-.21-.21-.19-.22-.19-.23-.17-.25-.16-.24-.15-.26-.14-.26-.12-.26-.11-.27-.1-.28-.08-.28-.08-.28-.05-.29,0-.28,0h-.29s-.07,0-.11.08Zm0-.08" transform="translate(-15 -39.74)"/><path class="cls-12" d="M1026.48,1043.31c0,14.18-46,25.67-102.68,25.67s-102.68-11.49-102.68-25.67c0-6.81,10.81-13.34,30.07-18.15s45.38-7.52,72.61-7.52,53.35,2.7,72.61,7.52,30.07,11.34,30.07,18.15Zm0,0" transform="translate(-15 -39.74)"/><path class="cls-13" d="M894.43,978.75c-3.43,26.09-17,62-27.76,60.64s-14.55-39.66-11.12-65.76,15.62-29.8,23.57-28.75,18.75,7.77,15.31,33.87Zm0,0" transform="translate(-15 -39.74)"/><path class="cls-14" d="M879.83,939.45A22.23,22.23,0,0,0,862,945c-5.76,5.23-10,14.05-11.83,27.89a169.9,169.9,0,0,0,.25,43.63,71.57,71.57,0,0,0,4.52,17.82c2.14,4.93,5.25,9.69,11.06,10.45s10-3,13.38-7.23a71.35,71.35,0,0,0,9-16,170,170,0,0,0,11.54-42.08c1.82-13.84,0-23.46-4.21-30a22.24,22.24,0,0,0-15.82-10ZM878.4,950.3a10.54,10.54,0,0,1,8,5.08c2.32,3.6,4.18,10.4,2.57,22.65a161.61,161.61,0,0,1-10.75,39.2,63.43,63.43,0,0,1-7.49,13.55,11.21,11.21,0,0,1-3.37,3.07A11.35,11.35,0,0,1,865,1030a62.92,62.92,0,0,1-3.73-15,161.22,161.22,0,0,1-.24-40.65c1.61-12.25,5.17-18.33,8.34-21.22a10.54,10.54,0,0,1,9.08-2.82Zm0,0" transform="translate(-15 -39.74)"/><path class="cls-13" d="M992,973.63c3.44,26.1-.38,64.34-11.12,65.76s-24.32-34.54-27.76-60.64,7.37-32.83,15.32-33.87,20.13,2.65,23.56,28.75Zm0,0" transform="translate(-15 -39.74)"/><path class="cls-14" d="M967.77,939.45a22.22,22.22,0,0,0-15.82,10c-4.21,6.54-6,16.16-4.21,30a170,170,0,0,0,11.53,42.08,71.74,71.74,0,0,0,9,16c3.34,4.21,7.58,8,13.39,7.23s8.92-5.52,11.05-10.45a70.71,70.71,0,0,0,4.52-17.82,169.45,169.45,0,0,0,.26-43.63c-1.82-13.84-6.08-22.66-11.84-27.89a22.21,22.21,0,0,0-17.86-5.57Zm1.42,10.85a10.54,10.54,0,0,1,9.08,2.82c3.18,2.89,6.73,9,8.35,21.22a161.69,161.69,0,0,1-.24,40.65,63.4,63.4,0,0,1-3.73,15,11.13,11.13,0,0,1-2.46,3.84,11.24,11.24,0,0,1-3.36-3.07,63,63,0,0,1-7.49-13.55A161.61,161.61,0,0,1,958.59,978c-1.62-12.25.24-19,2.56-22.65a10.56,10.56,0,0,1,8-5.08Zm0,0" transform="translate(-15 -39.74)"/><path class="cls-13" d="M798.1,853.2c-16,20.88-45.76,45.22-54.36,38.63S751,850.21,767,829.32s28.42-18,34.79-13.12,12.35,16.11-3.68,37Zm0,0" transform="translate(-15 -39.74)"/><path class="cls-14" d="M805.11,811.86a22.23,22.23,0,0,0-18.26-4.1c-7.61,1.65-15.7,7.15-24.2,18.23a170.24,170.24,0,0,0-21.59,37.91,71.14,71.14,0,0,0-5,17.69c-.61,5.34-.29,11,4.35,14.58s10.21,2.41,15.21.43a71.18,71.18,0,0,0,15.8-9.4,170.32,170.32,0,0,0,31-30.67c8.5-11.08,11.72-20.32,11.35-28.09a22.21,22.21,0,0,0-8.69-16.58Zm-6.67,8.69a10.52,10.52,0,0,1,4.43,8.41c.2,4.28-1.58,11.1-9.11,20.91a162.15,162.15,0,0,1-28.9,28.57,63.57,63.57,0,0,1-13.26,8,11.27,11.27,0,0,1-4.46,1,11.26,11.26,0,0,1-.2-4.55A63,63,0,0,1,751.22,868a161.06,161.06,0,0,1,20.12-35.32c7.52-9.8,13.64-13.29,17.83-14.2a10.51,10.51,0,0,1,9.27,2.1Zm0,0" transform="translate(-15 -39.74)"/><path class="cls-13" d="M1080.6,829.32c16,20.89,31.84,55.92,23.25,62.51s-38.33-17.75-54.36-38.63-10-32.11-3.67-37,18.76-7.76,34.78,13.12Zm0,0" transform="translate(-15 -39.74)"/><path class="cls-14" d="M1042.49,811.86a22.21,22.21,0,0,0-8.69,16.58c-.38,7.77,2.85,17,11.35,28.09a170,170,0,0,0,31,30.67,71.13,71.13,0,0,0,15.79,9.4c5,2,10.57,3.14,15.21-.43s5-9.24,4.35-14.58a71.08,71.08,0,0,0-5-17.69A170.24,170.24,0,0,0,1085,826c-8.51-11.08-16.6-16.58-24.2-18.23a22.22,22.22,0,0,0-18.26,4.1Zm6.66,8.69a10.53,10.53,0,0,1,9.28-2.1c4.19.91,10.31,4.4,17.83,14.2A162.34,162.34,0,0,1,1096.38,868a63.3,63.3,0,0,1,4.28,14.88,11.34,11.34,0,0,1-.2,4.56,11.76,11.76,0,0,1-4.46-1,63.31,63.31,0,0,1-13.26-8,161.87,161.87,0,0,1-28.91-28.57c-7.52-9.81-9.31-16.62-9.1-20.91a10.54,10.54,0,0,1,4.42-8.41Zm0,0" transform="translate(-15 -39.74)"/><path class="cls-14" d="M869.46,622.64a35.93,35.93,0,1,0,.35,71.86h108a35.93,35.93,0,1,0,.34-71.86Zm.12,17.4H977.74a18.55,18.55,0,0,1,18.65,18.59A18.14,18.14,0,0,1,978,676.77H869.85a18.55,18.55,0,0,1-18.64-18.58A18.13,18.13,0,0,1,869.58,640Zm-.08.09" transform="translate(-15 -39.74)"/><path class="cls-14" d="M923.8,622a45,45,0,1,1,45-44.95,45.09,45.09,0,0,1-45,44.95Zm0-17.51a27.45,27.45,0,1,0-27.45-27.44,27.31,27.31,0,0,0,27.45,27.44Zm0,0" transform="translate(-15 -39.74)"/><path class="cls-14" d="M880.38,568.5a35.77,35.77,0,1,0,.3,71.54h86.23a35.77,35.77,0,1,0,.31-71.54Zm-.06,16.44h86.77a19.43,19.43,0,0,1,19.5,18.25,19.14,19.14,0,0,1-19.31,20.41H880.51A19.43,19.43,0,0,1,861,605.35a19.14,19.14,0,0,1,19.31-20.41Zm.13,0" transform="translate(-15 -39.74)"/><path class="cls-15" d="M960,577.08a36.21,36.21,0,1,0-10.6,25.59A36.21,36.21,0,0,0,960,577.08Zm0,0" transform="translate(-15 -39.74)"/><path class="cls-16" d="M933.71,573.4A23.08,23.08,0,1,0,927,589.72a23.08,23.08,0,0,0,6.76-16.32Zm0,0" transform="translate(-15 -39.74)"/><path class="cls-15" d="M887.54,576.88a43.44,43.44,0,0,1,1.16-10h60.66a43.44,43.44,0,0,1,1.16,10Zm0-.14" transform="translate(-15 -39.74)"/><path class="cls-14" d="M923.8,615.47a38.39,38.39,0,1,1,38.39-38.39,38.42,38.42,0,0,1-38.39,38.39Zm0-4.38a34,34,0,1,0-34-34,34,34,0,0,0,34,34Zm0,0" transform="translate(-15 -39.74)"/><path class="cls-17" d="M880.36,576.56H967a27.55,27.55,0,1,1,.25,55.1H880.61a27.55,27.55,0,1,1-.25-55.1Zm.09.18" transform="translate(-15 -39.74)"/><path class="cls-18" d="M875.38,576.88h70.48a15.5,15.5,0,0,1,15.58,16.24,15.28,15.28,0,0,1-15.28,14.37H875.68a15.49,15.49,0,0,1-15.57-16.24,15.27,15.27,0,0,1,15.27-14.37Zm-.07-.14" transform="translate(-15 -39.74)"/><path class="cls-11" d="M878.47,586.55h34.77a5.7,5.7,0,0,1,5.81,6.14,5.62,5.62,0,0,1-5.62,5.14H878.66a5.72,5.72,0,0,1-5.81-6.15,5.62,5.62,0,0,1,5.62-5.13Zm-.25-.22" transform="translate(-15 -39.74)"/><path class="cls-14" d="M880.54,574.63a29.46,29.46,0,0,0-29.45,28c-.81,16.89,13,30.92,29.87,30.92h85.67c16.92,0,30.68-14,29.88-30.92a29.46,29.46,0,0,0-29.45-28Zm-.12,4.18H966.9a25.64,25.64,0,0,1,25.73,24.78,25.37,25.37,0,0,1-25.45,26.14H880.7A25.64,25.64,0,0,1,855,605a25.37,25.37,0,0,1,25.45-26.15Zm0,0" transform="translate(-15 -39.74)"/><path class="cls-14" d="M824.5,692v36.75a153.46,153.46,0,0,0-54.3,117c0,84.56,68.67,153.35,153.25,153.51h.29c84.7,0,153.55-68.83,153.55-153.51A153.52,153.52,0,0,0,1023,728.77V692a27,27,0,0,0-26.85-26.85H851.35A26.93,26.93,0,0,0,824.5,692Zm27.06-9.46H996.25a9.35,9.35,0,0,1,9.34,9.35v45l3.28,2.63a136.13,136.13,0,0,1-85,242.34h-.26a136.13,136.13,0,0,1-84.71-242.34l3.28-2.63v-45a9.14,9.14,0,0,1,9.34-9.35Zm-.16.15" transform="translate(-15 -39.74)"/><path class="cls-17" d="M869.34,631.34H978a27.23,27.23,0,1,1,.24,54.45H869.57a27.23,27.23,0,1,1-.23-54.45Zm.16,0" transform="translate(-15 -39.74)"/><path class="cls-18" d="M864.92,632.63H952.5a14.64,14.64,0,0,1,14.71,13.79,14.48,14.48,0,0,1-14.49,15.21H865.14a14.64,14.64,0,0,1-14.71-13.8,14.48,14.48,0,0,1,14.49-15.2Zm0,0" transform="translate(-15 -39.74)"/><path class="cls-11" d="M870.5,641h42.41a5.76,5.76,0,0,1,5.79,5.78,5.62,5.62,0,0,1-5.64,5.5H870.65a5.77,5.77,0,0,1-5.79-5.78,5.64,5.64,0,0,1,5.64-5.5Zm0-.15" transform="translate(-15 -39.74)"/><path class="cls-14" d="M869.53,629.08a29.33,29.33,0,1,0,.38,58.65H977.69a29.33,29.33,0,1,0,.38-58.65Zm-.06,4.51H977.84a25.16,25.16,0,0,1,25.25,24.32,24.88,24.88,0,0,1-25,25.63H869.75a25.15,25.15,0,0,1-25.24-24.31,24.88,24.88,0,0,1,25-25.64Zm0,0" transform="translate(-15 -39.74)"/><path class="cls-13" d="M1068.6,845.92a144.8,144.8,0,1,0-42.41,102.39,144.8,144.8,0,0,0,42.41-102.39Zm0,0" transform="translate(-15 -39.74)"/><path class="cls-13" d="M1014.29,732.84V692a18.1,18.1,0,0,0-18.1-18.1H851.3A18.1,18.1,0,0,0,833.2,692v40.87Zm0,0" transform="translate(-15 -39.74)"/><path class="cls-19" d="M1038.66,845.92A114.86,114.86,0,1,0,923.8,960.78a114.88,114.88,0,0,0,114.86-114.86Zm0,0" transform="translate(-15 -39.74)"/><path class="cls-20" d="M1007.39,845.92a83.59,83.59,0,1,0-83.59,83.59,83.59,83.59,0,0,0,83.59-83.59Zm0,0" transform="translate(-15 -39.74)"/><path class="cls-21" d="M833.2,715.2V692a18.1,18.1,0,0,1,18.1-18.1H996.18A18.08,18.08,0,0,1,1014.29,692v23.2a18.08,18.08,0,0,0-18.11-18.13H851.31A18.08,18.08,0,0,0,833.2,715.2Zm.1,0" transform="translate(-15 -39.74)"/><path class="cls-14" d="M831.26,691.91v39.83A147.1,147.1,0,0,0,777,845.83c0,81.08,65.63,146.9,146.64,147h.28c81.11,0,146.91-65.86,146.91-147a147.12,147.12,0,0,0-54.27-114.1V691.91a20.29,20.29,0,0,0-20.29-20.29H851.56A20.29,20.29,0,0,0,831.26,691.91Zm20.1-15.78H996.12A15.91,15.91,0,0,1,1012,692v41.84l.82.66a142.55,142.55,0,0,1-89.12,253.83h-.27a142.55,142.55,0,0,1-88.84-253.83l.82-.66V692a15.82,15.82,0,0,1,15.91-15.9Zm0,0" transform="translate(-15 -39.74)"/><path class="cls-11" d="M968.19,845.92a44.4,44.4,0,1,0-44.39,44.39,44.38,44.38,0,0,0,44.39-44.39Zm0,0" transform="translate(-15 -39.74)"/><path class="cls-11" d="M862.52,916.58v-11.4c0-33.75,27.61-61.85,61.36-61.78A61.24,61.24,0,0,1,985,904.65v11.93a10.57,10.57,0,0,1-10.57,10.57H873.09A10.57,10.57,0,0,1,862.52,916.58Zm10.6,10.47" transform="translate(-15 -39.74)"/><path class="cls-22" d="M935.69,927.14l0,0s10.4-20,0-38.42c13-20.49,1.56-43.8,1.56-43.8A61.28,61.28,0,0,1,985,904.65v11.93a10.55,10.55,0,0,1-10.57,10.57Zm.07-.09" transform="translate(-15 -39.74)"/><path class="cls-14" d="M965.63,927.14v0s12-13.71,0-28.25c13.8-12.76,1-37.88,1-37.88A60.91,60.91,0,0,1,985,904.65v11.93a10.58,10.58,0,0,1-10.62,10.57Zm.19-.09" transform="translate(-15 -39.74)"/><path class="cls-14" d="M881.85,927.14v0s-12-13.71,0-28.25c-13.79-12.76-.94-37.88-.94-37.88a60.91,60.91,0,0,0-18.39,43.66v11.93a10.58,10.58,0,0,0,10.62,10.57Zm-.06-.09" transform="translate(-15 -39.74)"/><path class="cls-14" d="M923.74,841.28a63.5,63.5,0,0,0-63.48,63.44v11.92A12.8,12.8,0,0,0,873,929.4H974.47a12.79,12.79,0,0,0,12.75-12.76V904.72a63.49,63.49,0,0,0-63.48-63.44Zm.17,4.25A59,59,0,0,1,983,904.58v11.93a8.38,8.38,0,0,1-8.37,8.38H873.16a8.38,8.38,0,0,1-8.38-8.38V904.58a59.05,59.05,0,0,1,59.13-59.05Zm-.11,0" transform="translate(-15 -39.74)"/><path class="cls-14" d="M877.34,785.76a22.51,22.51,0,0,1,22.56,22.55v11a22.76,22.76,0,0,1-21.63,22.85,22.51,22.51,0,0,1-23.48-22.54V808.31a22.5,22.5,0,0,1,22.55-22.55Zm-.07,0" transform="translate(-15 -39.74)"/><path class="cls-11" d="M890.4,801.93a7.29,7.29,0,1,1-2.14-5.15,7.28,7.28,0,0,1,2.14,5.15Zm0,0" transform="translate(-15 -39.74)"/><path class="cls-14" d="M970.47,785.75a22.51,22.51,0,0,0-22.56,22.55v18.63H993V808.3a22.5,22.5,0,0,0-22.55-22.55Zm-.14,0" transform="translate(-15 -39.74)"/><path class="cls-11" d="M983.46,801.93a7.28,7.28,0,1,1-7.28-7.28,7.28,7.28,0,0,1,7.28,7.28Zm0,0" transform="translate(-15 -39.74)"/><path class="cls-14" d="M918,467a27.5,27.5,0,0,0-27.43,27.42v85.36h17.73V494.63a9.91,9.91,0,0,1,9.91-9.91h11.43a9.91,9.91,0,0,1,9.91,9.91v85.15h17.4V494.42A27.5,27.5,0,0,0,929.51,467Zm0,.13" transform="translate(-15 -39.74)"/><path class="cls-14" d="M923.9,471.63a77.65,77.65,0,0,0-77.49,77.55v19.76a19.92,19.92,0,0,0,19.86,19.86H981.54a19.92,19.92,0,0,0,19.86-19.86V549.18a77.65,77.65,0,0,0-77.5-77.55Zm0,17.3A59.93,59.93,0,0,1,984,549v19.76a2.35,2.35,0,0,1-2.35,2.35H866.16a2.35,2.35,0,0,1-2.35-2.35V549a59.94,59.94,0,0,1,60.1-60Zm-.11.11" transform="translate(-15 -39.74)"/><path class="cls-14" d="M833.84,568.58v1.25a50.37,50.37,0,0,0,50.23,50.23h79.67A50.37,50.37,0,0,0,1014,569.83v-1.25a23.35,23.35,0,0,0-23.28-23.28H857.12A23.35,23.35,0,0,0,833.84,568.58ZM857,562.7H990.48a5.77,5.77,0,0,1,5.77,5.77V570a32.72,32.72,0,0,1-32.72,32.71H884A32.72,32.72,0,0,1,851.24,570v-1.47A5.58,5.58,0,0,1,857,562.7Zm.06.1" transform="translate(-15 -39.74)"/><path class="cls-23" d="M842.54,568.52v1.37A41.47,41.47,0,0,0,884,611.36h79.47A41.47,41.47,0,0,0,1005,569.89v-1.37A14.52,14.52,0,0,0,990.43,554H857.06A14.52,14.52,0,0,0,842.54,568.52ZM857.07,554" transform="translate(-15 -39.74)"/><path class="cls-14" d="M840.29,568.45V570A43.66,43.66,0,0,0,884,613.62h79.59A43.66,43.66,0,0,0,1007.2,570v-1.51a16.71,16.71,0,0,0-16.71-16.7H857A16.7,16.7,0,0,0,840.29,568.45Zm16.84-12.19H990.68A12.33,12.33,0,0,1,1003,568.59v1.23a39.27,39.27,0,0,1-39.28,39.28H884.08a39.27,39.27,0,0,1-39.28-39.28v-1.27a12.23,12.23,0,0,1,12.33-12.29Zm-.06,0" transform="translate(-15 -39.74)"/><path class="cls-23" d="M882.46,588.8h82.87a27.3,27.3,0,0,0,27.37-27.36l0-12.48a68.81,68.81,0,0,0-137.62,0l0,12.48a27.31,27.31,0,0,0,27.37,27.36Zm-.11.12" transform="translate(-15 -39.74)"/><path class="cls-11" d="M885.87,491.49a69.09,69.09,0,0,0-30.76,57.56l0,12.49a27.33,27.33,0,0,0,12.59,23.14V544.1c0-20.32,6.93-38.81,18.18-52.61Zm.28,0" transform="translate(-15 -39.74)"/><path class="cls-24" d="M944.64,483.39a18.65,18.65,0,0,1,3.59,11.05V588.8h16.89a27.25,27.25,0,0,0,27.26-27.36l0-12.48a68.78,68.78,0,0,0-47.77-65.57Zm0,.12" transform="translate(-15 -39.74)"/><path class="cls-14" d="M923.76,478.05a71,71,0,0,0-70.91,71l0,12.49a29.53,29.53,0,0,0,29.53,29.55h82.73a29.54,29.54,0,0,0,29.54-29.54h0l0-12.48a71,71,0,0,0-70.9-71Zm-.17,4.42a66.58,66.58,0,0,1,66.53,66.69l.33,12.4h0c-.08,14-25.25,25.31-25.25,25.31h-83A25.17,25.17,0,0,1,857,561.7v0l0-12.5a66.62,66.62,0,0,1,66.53-66.69Zm.21,0" transform="translate(-15 -39.74)"/><path class="cls-23" d="M899.25,494.69V580.1h49V494.69A18.66,18.66,0,0,0,929.57,476H917.92A18.67,18.67,0,0,0,899.25,494.69ZM918,475.89" transform="translate(-15 -39.74)"/><rect class="cls-11" x="891.99" y="451.75" width="4.51" height="90.55"/><path class="cls-14" d="M918.18,473.77a20.85,20.85,0,0,0-20.86,20.85v94.51h4.19v-94.7A16.47,16.47,0,0,1,918,478H929.5A16.47,16.47,0,0,1,946,494.43v94.7h4.51V494.62a20.85,20.85,0,0,0-20.85-20.85Zm-.17-.07" transform="translate(-15 -39.74)"/><path class="cls-14" d="M1154.39,723.16l-3.79,2.31a56.9,56.9,0,0,0-23,26.74h0a56.84,56.84,0,0,0,2.8,49.06l-52.71,127.26a35.5,35.5,0,1,0,65.6,27.17L1196,828.48a56.85,56.85,0,0,0,36.68-32.73h0a57,57,0,0,0,2.66-35.15l-1.06-4.31-33.83-14-10.27,24.79L1178,762l10.27-24.79Zm1.8,19.7,9.17,3.8L1160.65,758a14.72,14.72,0,0,0,7.87,19l17.74,7.34a14.7,14.7,0,0,0,19-7.87l4.7-11.35,9.16,3.79a39.11,39.11,0,0,1-31.25,43.62l-4.58.92L1127.14,949a18,18,0,1,1-33.24-13.77l56.15-135.57-2.59-3.89a39.12,39.12,0,0,1,8.73-52.93Zm0,0" transform="translate(-15 -39.74)"/><path class="cls-12" d="M1177.67,780a26.69,26.69,0,0,1,14.48,35l-56.92,137.41a26.75,26.75,0,1,1-49.42-20.47l56.92-137.41A26.68,26.68,0,0,1,1177.67,780Zm0,0" transform="translate(-15 -39.74)"/><path class="cls-14" d="M1116.63,945.75a7,7,0,1,1,0-5.38,7,7,0,0,1,0,5.38Zm0,0" transform="translate(-15 -39.74)"/><path class="cls-12" d="M1155.15,733a48.12,48.12,0,1,0,71.72,29.71l-21.64-9-8.06,19.44a5.77,5.77,0,0,1-7.56,3.13l-17.74-7.34a5.78,5.78,0,0,1-3.13-7.56l8.06-19.45Zm0,0" transform="translate(-15 -39.74)"/><path class="cls-11" d="M1205.23,753.7l-8.06,19.44a5.77,5.77,0,0,1-7.56,3.13l-17.74-7.34a5.78,5.78,0,0,1-3.13-7.56l1.09-2.62-37.29,21.53a48.14,48.14,0,0,0,7.63,20.37l-10.61,25.62L1228,769.44a47.23,47.23,0,0,0-1.12-6.78Zm0,0" transform="translate(-15 -39.74)"/><path class="cls-14" d="M1155,730.51l-1,.57a50.35,50.35,0,0,0-20.31,23.65h0a50.25,50.25,0,0,0,4,46.08l-54,130.25a28.94,28.94,0,0,0,53.47,22.14l54-130.23a50.25,50.25,0,0,0,35.44-29.74h0a50.34,50.34,0,0,0,2.36-31.09l-.27-1.08L1204,750.84l-8.89,21.47a3.54,3.54,0,0,1-4.7,1.94l-17.74-7.35a3.53,3.53,0,0,1-1.94-4.69l8.89-21.47Zm.42,4.91,18.56,7.69-7.22,17.42A8,8,0,0,0,1171,771l17.73,7.35a8,8,0,0,0,10.42-4.32l7.22-17.42,18.55,7.68a46,46,0,0,1-2.36,27.32h0A45.88,45.88,0,0,1,1189.16,819l-1.15.23-54.8,132.32a24.56,24.56,0,0,1-45.38-18.8l54.81-132.33-.65-1a46,46,0,0,1-4.25-43h0a45.78,45.78,0,0,1,17.63-21Zm0,0" transform="translate(-15 -39.74)"/><path class="cls-25" d="M1164.57,811.64a11.58,11.58,0,0,0-15.56,6.45l-34.65,83.65a11.91,11.91,0,0,0,22,9.12L1171,827.2a11.57,11.57,0,0,0-6.44-15.56Zm0,0" transform="translate(-15 -39.74)"/><path class="cls-14" d="M1165.41,809.62a13.92,13.92,0,0,0-18.42,7.63l-34.65,83.65a14.1,14.1,0,1,0,26.05,10.79L1173,828a13.92,13.92,0,0,0-7.63-18.42Zm-1.68,4c5.34,2.21,7.47,7.36,5.26,12.69L1134.34,910c-2.21,5.34-7.36,7.47-12.7,5.26s-7.47-7.36-5.26-12.7L1151,818.93c2.22-5.34,7.36-7.48,12.7-5.26Zm0,0" transform="translate(-15 -39.74)"/><polyline class="cls-2" points="1506.22 162.86 1503.8 162.45 1433.29 150.27 1595.53 0.49 1508.28 124.59 1590.23 137.86 1415.5 261.9"/><circle class="cls-7" cx="1884.5" cy="558.76" r="17.5"/></svg>