<?xml version="1.0" encoding="utf-8"?>
<!-- Generator: Adobe Illustrator 25.0.0, SVG Export Plug-In . SVG Version: 6.00 Build 0)  -->
<svg version="1.1" id="Layer_1" xmlns="http://www.w3.org/2000/svg" xmlns:xlink="http://www.w3.org/1999/xlink" x="0px" y="0px"
	 viewBox="0 0 100 100" style="enable-background:new 0 0 100 100;" xml:space="preserve">
<path d="M96.2,91.1H68.6c-0.5-1.8-1.9-3.3-3.7-3.6V83h20.2c6.9,0,12.4-5.4,12.4-12.2c0-4.5-2.5-8.5-6.6-10.7
	c-0.1-6-4.2-11.3-10-13.1c0.3-1.9,0.4-3.8,0.4-5.9C81.4,19.7,63.6,2.4,41.9,2.4C20.2,2.4,2.5,19.7,2.5,41.1
	c0,17.7,12.3,33.2,29.9,37.5c2.4,2.8,5.9,4.4,9.5,4.4h20.2v4.4c-1.9,0.5-3.4,1.8-3.7,3.6H30.8c-0.8,0-1.3,0.6-1.2,1.3
	c0,0.7,0.7,1.2,1.2,1.2h27.5c0.8,2.8,3.6,4.4,6.3,3.6c1.9-0.5,3.4-1.8,3.7-3.6h27.6c0.8,0,1.3-0.5,1.3-1.2
	C97.4,91.6,97,91.1,96.2,91.1C96.3,91.1,96.3,91.1,96.2,91.1L96.2,91.1z M76.9,46.4c-1.4,0-2.9,0.2-4.3,0.6c0.2-1.9,0.3-3.8,0.3-5.9
	c0-1.9-0.1-3.8-0.3-5.9c2,0.2,3.9,0.4,5.9,0.7c0.5,3.5,0.5,6.9,0,10.5C77.8,46.4,77.3,46.4,76.9,46.4z M6,48.8
	c1.7,0.2,3.6,0.5,5.7,0.7c0.4,3.2,1.2,6.2,2.2,9.2c-1.6-0.4-3.3-0.9-4.7-1.3C7.7,54.7,6.7,51.8,6,48.8z M9.2,24.8
	c1.5-0.5,3.2-1,4.7-1.3c-1.1,3-1.7,6.1-2.2,9.2c-2,0.2-3.8,0.4-5.7,0.7C6.7,30.4,7.7,27.4,9.2,24.8z M30.7,20.8
	c-0.5,3.4-1,6.9-1.2,10.7c-5.3,0.2-10.5,0.5-15.2,1c0.5-3.3,1.3-6.5,2.5-9.7C21.4,21.8,26,21.1,30.7,20.8z M18,19.9
	c1.7-4.1,4.3-7.8,7.4-10.9c2.9-1.4,5.9-2.5,9.2-3.1c-1.6,4-2.8,8.1-3.6,12.4C26.7,18.4,22.5,19.1,18,19.9z M66.9,22.7
	c1.2,3.2,2,6.3,2.5,9.7c-4.7-0.4-9.8-0.7-15.2-1c-0.2-3.7-0.7-7.4-1.2-10.7C57.9,21.1,62.4,21.8,66.9,22.7z M52.7,18.1
	c-0.8-4.2-1.9-8.3-3.6-12.4c3.3,0.6,6.2,1.6,9.2,3.1c3.2,3.2,5.7,6.9,7.4,10.9C61.5,19.1,57.1,18.4,52.7,18.1z M77.8,33.4
	c-1.7-0.2-3.6-0.5-5.7-0.7c-0.4-3.2-1.2-6.2-2.2-9.2c1.5,0.4,3.2,0.9,4.7,1.3C76.1,27.4,77.3,30.4,77.8,33.4z M51.6,31.4
	c-3.3-0.1-6.4-0.1-9.8-0.1c-3.4,0-6.6,0-9.8,0.1c0.3-3.8,0.8-7.5,1.2-10.8c2.8-0.2,5.7-0.3,8.5-0.3c2.9,0,5.8,0.1,8.5,0.3
	C51.1,23.9,51.4,27.5,51.6,31.4z M5.1,41.2c0-1.7,0.1-3.4,0.4-5.1c1.9-0.3,3.7-0.5,5.9-0.7c-0.2,1.9-0.3,3.8-0.3,5.9
	c0,1.9,0.1,3.8,0.3,5.9c-2-0.2-3.9-0.4-5.9-0.7C5.2,44.5,5.1,42.8,5.1,41.2L5.1,41.2z M13.6,41.2c0-2,0.1-4.1,0.3-6
	c4.8-0.4,9.9-0.9,15.4-1.1c-0.1,2.2-0.2,4.6-0.2,7s0.1,4.7,0.2,7c-5.5-0.2-10.6-0.5-15.4-1.1C13.7,45.1,13.6,43.2,13.6,41.2
	L13.6,41.2z M14.4,49.8c4.7,0.4,9.8,0.7,15.2,1c0.2,3.7,0.7,7.4,1.2,10.7c-4.6-0.4-9.2-1.1-13.8-2C15.7,56.3,14.9,53.1,14.4,49.8
	L14.4,49.8z M33.7,61.7h-0.3c-0.5-3.4-1-7-1.2-10.8c2.7,0.1,5.6,0.1,8.3,0.1c-1.4,2.6-2.3,5.3-2.4,8.2
	C36.6,59.7,34.9,60.6,33.7,61.7z M42.2,48.4h-0.4c-3.4,0-6.7,0-9.9-0.1c-0.1-2.3-0.2-4.7-0.2-7.2s0.1-4.8,0.2-7.2
	c3.3-0.1,6.6-0.1,9.9-0.1c3.3,0,6.7,0,9.9,0.1c0.1,2.3,0.2,4.7,0.2,7.2c0,0.3,0,0.7,0,1.1c-3.3,0.9-6.1,2.6-8.5,4.8
	C43.1,47.5,42.7,47.9,42.2,48.4z M54.5,34.1c5.5,0.2,10.6,0.5,15.4,1.1c0.2,2,0.3,4,0.3,6c0,1.8-0.1,3.7-0.3,5.7
	c-3.5-3.4-8.2-5.2-13.1-5.2c-0.8,0-1.4,0-2.2,0.1c0-0.2,0-0.4,0-0.6C54.7,38.7,54.6,36.3,54.5,34.1z M72.7,21.5
	c-1.2-0.3-2.5-0.6-3.8-1c-1.1-2.6-2.3-5-3.8-7.4C68,15.5,70.6,18.3,72.7,21.5z M46.1,5.3c2,4,3.4,8.3,3.9,12.6
	c-2.6-0.2-5.3-0.2-8.1-0.2c-2.7,0-5.5,0.1-8.1,0.2c0.8-4.4,2.1-8.5,3.9-12.6C40.6,5.1,43.3,5.1,46.1,5.3z M18.8,13.1
	c-1.4,2.3-2.8,4.8-3.8,7.4c-1.2,0.3-2.6,0.6-3.8,1C13.1,18.3,15.7,15.5,18.8,13.1z M10.9,60.7c1.2,0.3,2.6,0.7,3.9,1.1
	c1.1,2.7,2.4,5.1,3.9,7.6C15.7,66.8,13.1,63.9,10.9,60.7z M25.5,73.4c-3.2-3.3-5.7-6.9-7.5-11c4.3,0.9,8.6,1.4,13.1,1.7
	c0,0.2,0.1,0.4,0.1,0.5c-2,3.3-2.3,7.2-0.9,10.7C28.8,74.9,27.2,74.2,25.5,73.4z M32.2,70.7c0-4.5,3.2-8.3,7.6-9.4
	c0.7-0.1,1.1-0.7,1.1-1.3c-0.1-8.7,6.9-15.8,15.7-15.9c5-0.1,9.7,2.1,12.9,5.9c0.4,0.5,1.2,0.6,1.6,0.3c5.6-3.1,12.7-1.2,15.7,4.3
	c1.1,1.8,1.5,4,1.4,6.1c0,0.5,0.3,1.1,0.8,1.2c4.9,2.1,7.1,7.9,4.9,12.7c-1.5,3.5-5.1,5.7-8.8,5.7H41.9
	C36.6,80.3,32.2,76.1,32.2,70.7z M63.4,95c-1.4,0-2.6-1.2-2.6-2.6s1.2-2.6,2.6-2.6c1.4,0,2.6,1.2,2.6,2.6l0,0
	C66.1,93.8,65,95,63.4,95z"/>
</svg>
