<?xml version="1.0" encoding="utf-8"?>
<!-- Generator: Adobe Illustrator 25.0.0, SVG Export Plug-In . SVG Version: 6.00 Build 0)  -->
<svg version="1.1" id="Layer_1" xmlns="http://www.w3.org/2000/svg" xmlns:xlink="http://www.w3.org/1999/xlink" x="0px" y="0px"
	 viewBox="0 0 100 100" style="enable-background:new 0 0 100 100;" xml:space="preserve">
<g>
	<path d="M96.1,68.6h-2.8v-24h3.1l0,0l0,0h0.1l0,0l0,0c0.2,0,0.4-0.1,0.6-0.2c0.5-0.4,0.6-1,0.2-1.3L80.4,24.9
		c-0.2-0.2-0.6-0.4-0.9-0.4l0,0h-5.9l-2.2-2.9l0,0c-0.1-0.1-0.2-0.2-0.3-0.3c-0.5-0.3-1.2-0.2-1.5,0.3l-2.2,2.9H31.3l-2.5-2.3
		c-0.2-0.2-0.6-0.4-0.9-0.3c-0.3,0-0.7,0.1-0.9,0.3L2.8,45.7c-0.4,0.4-0.4,1.1,0.1,1.3c0.2,0.2,0.5,0.3,0.8,0.3l0,0l0,0h4v25.3H4.9
		c-0.6,0-1.2,0.5-1.2,1v4.2c0,0.6,0.5,1,1.2,1h45.9c0.6,0,1.2-0.5,1.2-1v-3.1H96c0.6,0,1.2-0.5,1.2-1h0.1v-4.1
		C97.2,69.1,96.7,68.6,96.1,68.6z M95,72.7H48.1v-2.1H95V72.7z M28.8,27.3c-0.2-0.2-0.6-0.3-0.9-0.3s-0.7,0.1-0.9,0.3L8.5,45.4H6.2
		l21.8-21.2l21.8,21.2h-2.3L28.8,27.3z M65,54h9.3v14.7H65V54z M91.2,68.6H76.5V53c0-0.6-0.5-1-1.2-1H63.8c-0.6,0-1.2,0.5-1.2,1
		v15.6H48.1V47.3h4.1l0,0l0,0c0.3,0,0.6-0.1,0.8-0.3c0.5-0.4,0.5-1,0.1-1.3L52,44.6h39.1C91.2,44.6,91.2,68.6,91.2,68.6z M73.7,28.1
		h-6.6l3.4-4.2L73.7,28.1z M65.7,26.5l-1.6,2.1l0,0c0,0,0,0,0,0.1l0,0c0,0,0,0,0,0.1l0,0c0,0,0,0,0,0.1l0,0l0,0c0,0,0,0,0,0.1l0,0
		v0.1l0,0v0.1l0,0V37c0,0.6,0.5,1,1.2,1c0.7,0,1.2-0.5,1.2-1v-6.9H75V37c0,0.6,0.5,1,1.2,1c0.6,0,1.2-0.5,1.2-1v-7.9
		c0-0.2-0.1-0.4-0.2-0.6l0,0l-1.6-2.1h3.8l15.1,16.2H50L33.3,26.5H65.7z M9.8,46.9l18.1-17.7l17.9,17.5v26H9.8V46.9L9.8,46.9z
		 M49.7,76.8H6.1v-2.1h43.6V76.8L49.7,76.8z"/>
	<path d="M73.5,31h-6.2v5.6h6.2V31z M71.3,34.7h-1.8V33h1.8V34.7z"/>
	<path d="M40.2,47.7H15.8c-0.6,0-1.2,0.5-1.2,1V65c0,0.6,0.5,1,1.2,1h24.5c0.6,0,1.2-0.5,1.2-1V48.7C41.3,48.1,40.8,47.7,40.2,47.7z
		 M39.1,51.1h-10v-1.5h10V51.1z M26.9,49.6v1.5H16.8v-1.5H26.9z M26.9,56.4c-0.8-0.2-1.5-0.6-2.2-1.2c-0.8-0.6-1.2-1.3-1.5-2.1h3.7
		V56.4z M20.6,53.2c-0.3,0.8-0.8,1.4-1.5,2.1c-0.7,0.6-1.4,1-2.2,1.2v-3.3H20.6L20.6,53.2z M16.8,58.4c1.3-0.2,2.7-0.9,3.7-1.7
		c0.5-0.4,0.9-0.9,1.2-1.3c0.4,0.5,0.8,1,1.2,1.3c1.1,1,2.4,1.5,3.7,1.7V64h-10V58.4L16.8,58.4z M29.1,64V53.2h10V64H29.1z"/>
	<path d="M51.1,54.1V66c0,0.6,0.5,1,1.2,1h6.4c0.6,0,1.2-0.5,1.2-1V54.1c0-0.6-0.5-1-1.2-1h-6.5C51.5,53.1,51.1,53.5,51.1,54.1z
		 M53.3,65v-6.5h4.3V65H53.3z M57.6,55.1v1.4h-4.3v-1.4H57.6z"/>
	<path d="M80.5,67H87c0.6,0,1.2-0.5,1.2-1V54.1c0-0.6-0.5-1-1.2-1h-6.5c-0.6,0-1.2,0.5-1.2,1V66C79.5,66.5,79.9,67,80.5,67z
		 M81.7,65v-6.5H86V65H81.7z M86,55.1v1.4h-4.3v-1.4H86z"/>
	<path d="M67.3,60h-0.9c-0.6,0-1.2,0.5-1.2,1c0,0.6,0.5,1,1.2,1h0.9c0.6,0,1.2-0.5,1.2-1S67.8,60,67.3,60z"/>
	<path d="M32.3,57.9l1.7-1.7c0.4-0.4,0.4-1.1-0.1-1.3c-0.5-0.4-1.2-0.3-1.5,0.1l-1.7,1.7c-0.4,0.4-0.4,1.1,0.1,1.3
		c0.2,0.2,0.5,0.3,0.8,0.3C31.8,58.2,32.1,58.1,32.3,57.9z"/>
	<path d="M37.1,56.2c-0.5-0.4-1.2-0.3-1.5,0.1l-3.3,3.3C32,60,32,60.6,32.4,60.9c0.2,0.2,0.5,0.3,0.8,0.3c0.3,0,0.6-0.1,0.9-0.3
		l3.3-3.3C37.6,57.3,37.6,56.6,37.1,56.2z"/>
</g>
</svg>
